D:\school\WTK\thesis\model\3dpredictsim\Results\debug\Pog_s1_tmt_bCst_d05_k1000_WL30_ig24_act_TTC_IATx30Tn0P50_v2_GRF.mot
nRows=27
nColumns=19

name D:\school\WTK\thesis\model\3dpredictsim\Results\debug\Pog_s1_tmt_bCst_d05_k1000_WL30_ig24_act_TTC_IATx30Tn0P50_v2_GRF.mot
datacolumns 19
datarows 27
range 0.0000000000 0.2915901745
endheader
time 	ground_force_vx	ground_force_vy	ground_force_vz	ground_force_px	ground_force_py	ground_force_pz	1_ground_force_vx	1_ground_force_vy	1_ground_force_vz	1_ground_force_px	1_ground_force_py	1_ground_force_pz	ground_torque_x	ground_torque_y	ground_torque_z	1_ground_torque_x	1_ground_torque_y	1_ground_torque_z
        0.0000000000	      -97.9890157237	       72.7036989324	       15.0244114376	        0.1042365548	        0.0000000000	        0.0593894206	       51.4444025937	      309.1072950558	       -6.2801040090	       -0.3653819110	        0.0000000000	       -0.0279494719	        0.0000000000	        0.0000000000	        0.0000000000	        0.0000000000	        0.0000000000	        0.0000000000	
        0.0112150067	     -167.9817041802	      167.9732701743	       39.2187615457	        0.1167102980	        0.0000000000	        0.0590214673	       38.1314876084	      255.8924819632	      -12.1634274030	       -0.3608480213	        0.0000000000	       -0.0252634772	        0.0000000000	        0.0000000000	        0.0000000000	        0.0000000000	        0.0000000000	        0.0000000000	
        0.0224300134	      -73.7089466318	      414.6993751962	        3.4863878966	        0.1339643021	        0.0000000000	        0.0604641219	       31.4788022033	      215.1464153202	      -13.6353682825	       -0.3591489717	        0.0000000000	       -0.0240154155	        0.0000000000	        0.0000000000	        0.0000000000	        0.0000000000	        0.0000000000	        0.0000000000	
        0.0336450201	      -70.4459140613	      693.4329644824	      -19.4771191021	        0.1423720325	        0.0000000000	        0.0617730563	       24.5500986254	      167.7365846959	      -10.6068734139	       -0.3592497921	        0.0000000000	       -0.0238777755	        0.0000000000	        0.0000000000	        0.0000000000	        0.0000000000	        0.0000000000	        0.0000000000	
        0.0448600268	      -91.7033428651	      863.1268077675	      -27.3839513193	        0.1497870295	        0.0000000000	        0.0623016688	        9.9482559870	      110.6519437335	       -9.9790094342	       -0.3598927235	        0.0000000000	       -0.0240089789	        0.0000000000	        0.0000000000	        0.0000000000	        0.0000000000	        0.0000000000	        0.0000000000	
        0.0560750336	     -123.3235557691	      957.6592797182	      -28.8696719000	        0.1594953810	        0.0000000000	        0.0617293925	       -4.5761039824	       38.5738838609	       -4.9709816859	       -0.3616013341	        0.0000000000	       -0.0241112564	        0.0000000000	        0.0000000000	        0.0000000000	        0.0000000000	        0.0000000000	        0.0000000000	
        0.0672900403	     -120.0857623779	      968.0210376112	      -28.1742684258	        0.1692473322	        0.0000000000	        0.0608149547	        1.1924301412	       -1.1796194869	       -0.0240039272	        0.0000000000	        0.0000000000	        0.0000000000	        0.0000000000	        0.0000000000	        0.0000000000	        0.0000000000	        0.0000000000	        0.0000000000	
        0.0785050470	     -106.8469840352	      904.6460595001	      -25.7935955604	        0.1764356319	        0.0000000000	        0.0599116717	        0.9842859185	       -0.8081671343	       -0.0736883302	        0.0000000000	        0.0000000000	        0.0000000000	        0.0000000000	        0.0000000000	        0.0000000000	        0.0000000000	        0.0000000000	        0.0000000000	
        0.0897200537	      -93.4839358031	      834.3324367362	      -23.5748304278	        0.1825620462	        0.0000000000	        0.0592132391	        0.6456815252	       -0.4783503409	       -0.0430624871	        0.0000000000	        0.0000000000	        0.0000000000	        0.0000000000	        0.0000000000	        0.0000000000	        0.0000000000	        0.0000000000	        0.0000000000	
        0.1009350604	      -83.1068729099	      784.6743360819	      -22.8724419701	        0.1884370341	        0.0000000000	        0.0585988960	        0.3827370517	       -0.2650901551	       -0.0218608645	        0.0000000000	        0.0000000000	        0.0000000000	        0.0000000000	        0.0000000000	        0.0000000000	        0.0000000000	        0.0000000000	        0.0000000000	
        0.1121500671	      -73.6870823789	      751.0222525930	      -22.3085075185	        0.1942003698	        0.0000000000	        0.0580221074	        0.0981362497	       -0.0632328297	       -0.0052836559	        0.0000000000	        0.0000000000	        0.0000000000	        0.0000000000	        0.0000000000	        0.0000000000	        0.0000000000	        0.0000000000	        0.0000000000	
        0.1233650738	      -63.6960274821	      725.0203339239	      -21.9697898385	        0.2005773905	        0.0000000000	        0.0574074273	       -0.0579023597	        0.0354023445	        0.0027758005	        0.0000000000	        0.0000000000	        0.0000000000	        0.0000000000	        0.0000000000	        0.0000000000	        0.0000000000	        0.0000000000	        0.0000000000	
        0.1345800805	      -55.3874369843	      705.0118834654	      -22.4524254884	        0.2082080607	        0.0000000000	        0.0566448092	       -0.2007832489	        0.1186347325	        0.0082282494	        0.0000000000	        0.0000000000	        0.0000000000	        0.0000000000	        0.0000000000	        0.0000000000	        0.0000000000	        0.0000000000	        0.0000000000	
        0.1457950872	      -49.3342520765	      691.3757249626	      -24.1214143462	        0.2168912999	        0.0000000000	        0.0556972910	       -0.1367135116	        0.0770636330	        0.0063900189	        0.0000000000	        0.0000000000	        0.0000000000	        0.0000000000	        0.0000000000	        0.0000000000	        0.0000000000	        0.0000000000	        0.0000000000	
        0.1570100939	      -44.7955392611	      680.1114259444	      -24.4399801123	        0.2260069657	        0.0000000000	        0.0546305218	       -0.0776843300	        0.0414702092	        0.0043558211	        0.0000000000	        0.0000000000	        0.0000000000	        0.0000000000	        0.0000000000	        0.0000000000	        0.0000000000	        0.0000000000	        0.0000000000	
        0.1682251007	      -41.0030550422	      669.6399374819	      -23.9344341007	        0.2351150988	        0.0000000000	        0.0534836176	       -0.0466758678	        0.0237012277	        0.0029733176	        0.0000000000	        0.0000000000	        0.0000000000	        0.0000000000	        0.0000000000	        0.0000000000	        0.0000000000	        0.0000000000	        0.0000000000	
        0.1794401074	      -37.6606714237	      659.9709677204	      -22.9505770334	        0.2439612999	        0.0000000000	        0.0522925083	       -0.0330848711	        0.0160912748	        0.0022818352	        0.0000000000	        0.0000000000	        0.0000000000	        0.0000000000	        0.0000000000	        0.0000000000	        0.0000000000	        0.0000000000	        0.0000000000	
        0.1906551141	      -34.1414416833	      650.6386748680	      -21.6431770525	        0.2523577284	        0.0000000000	        0.0510891168	       -0.0283039506	        0.0132695611	        0.0020294102	        0.0000000000	        0.0000000000	        0.0000000000	        0.0000000000	        0.0000000000	        0.0000000000	        0.0000000000	        0.0000000000	        0.0000000000	
        0.2018701208	      -30.3750028387	      641.1908428508	      -20.2342919565	        0.2601884501	        0.0000000000	        0.0498925172	       -0.0287747256	        0.0130727487	        0.0020713517	        0.0000000000	        0.0000000000	        0.0000000000	        0.0000000000	        0.0000000000	        0.0000000000	        0.0000000000	        0.0000000000	        0.0000000000	
        0.2130851275	      -26.4305048728	      631.7297528508	      -18.9360104338	        0.2673616750	        0.0000000000	        0.0487183585	       -0.0339082547	        0.0149895647	        0.0023775242	        0.0000000000	        0.0000000000	        0.0000000000	        0.0000000000	        0.0000000000	        0.0000000000	        0.0000000000	        0.0000000000	        0.0000000000	
        0.2243001342	      -22.2294032239	      622.5640194035	      -17.8923046617	        0.2737853995	        0.0000000000	        0.0475870843	       -0.0456131012	        0.0196780204	        0.0030390089	        0.0000000000	        0.0000000000	        0.0000000000	        0.0000000000	        0.0000000000	        0.0000000000	        0.0000000000	        0.0000000000	        0.0000000000	
        0.2355151409	      -18.7070528824	      614.2182768103	      -17.2498059024	        0.2793024297	        0.0000000000	        0.0465326931	       -0.0681750490	        0.0287689645	        0.0042482510	        0.0000000000	        0.0000000000	        0.0000000000	        0.0000000000	        0.0000000000	        0.0000000000	        0.0000000000	        0.0000000000	        0.0000000000	
        0.2467301476	      -15.1674587145	      607.6515553422	      -17.0849960788	        0.2836795097	        0.0000000000	        0.0456136729	       -0.1090941477	        0.0451334875	        0.0063173858	        0.0000000000	        0.0000000000	        0.0000000000	        0.0000000000	        0.0000000000	        0.0000000000	        0.0000000000	        0.0000000000	        0.0000000000	
        0.2579451543	      -11.2331234732	      602.1567248809	      -17.0677479184	        0.2870885164	        0.0000000000	        0.0448342960	       -0.1790001281	        0.0727652070	        0.0095929895	        0.0000000000	        0.0000000000	        0.0000000000	        0.0000000000	        0.0000000000	        0.0000000000	        0.0000000000	        0.0000000000	        0.0000000000	
        0.2691601611	       -7.5276839701	      596.2555984051	      -16.9103103633	        0.2900579437	        0.0000000000	        0.0441403310	       -0.2893621570	        0.1158257623	        0.0143574595	        0.0000000000	        0.0000000000	        0.0000000000	        0.0000000000	        0.0000000000	        0.0000000000	        0.0000000000	        0.0000000000	        0.0000000000	
        0.2803751678	       -3.9078600311	      589.9440189144	      -16.6690572634	        0.2926724238	        0.0000000000	        0.0435269547	       -0.4475220943	        0.1767448869	        0.0206069420	        0.0000000000	        0.0000000000	        0.0000000000	        0.0000000000	        0.0000000000	        0.0000000000	        0.0000000000	        0.0000000000	        0.0000000000	
        0.2915901745	       -0.2178805877	      583.4116325715	      -16.2097698363	        0.2949758116	        0.0000000000	        0.0429961498	       -0.6522196651	        0.2546145793	        0.0278722139	        0.0000000000	        0.0000000000	        0.0000000000	        0.0000000000	        0.0000000000	        0.0000000000	        0.0000000000	        0.0000000000	        0.0000000000	
